<?xml version="1.0" standalone="no"?><!DOCTYPE svg PUBLIC "-//W3C//DTD SVG 1.1//EN" "http://www.w3.org/Graphics/SVG/1.1/DTD/svg11.dtd"><svg class="icon" width="128px" height="128.00px" viewBox="0 0 1024 1024" version="1.1" xmlns="http://www.w3.org/2000/svg"><path d="M365.151673 168.998914h292.412595c15.565689 0 31.131379-11.11835 31.131379-31.131379 0-15.565689-11.11835-31.131379-31.131379-31.131379H365.151673c-15.565689 0-31.131379 11.11835-31.131379 31.131379 4.44734 15.565689 16.677524 31.131379 31.131379 31.131379z" fill="#682ac9" /><path d="M915.50998 107.847991h-57.815418c-15.565689 0-31.131379 11.11835-31.131379 31.131379 0 15.565689 11.11835 31.131379 31.131379 31.131379h57.815418c23.348534 0 42.249729 18.901194 42.249728 42.249729v173.446254H72.739078V211.248643c0-23.348534 15.565689-42.249729 38.914224-42.249729h53.368078c15.565689 0 31.131379-11.11835 31.131379-31.131379 0-15.565689-11.11835-31.131379-31.131379-31.131379H111.653302c-53.368078 0-100.065147 46.697068-100.065147 100.065147V922.823018c0 53.368078 46.697068 100.065147 100.065147 100.065147h800.521173c53.368078 0 100.065147-46.697068 100.065146-100.065147V211.248643c3.335505-57.815418-42.249729-103.400651-96.729641-103.400652z m0 858.336591H111.653302c-23.348534 0-42.249729-18.901194-42.249728-42.249729V442.510315h885.020629v481.424538c0 22.236699-15.565689 42.249729-38.914223 42.249729z" fill="#682ac9" /><path d="M757.629415 281.294245c18.901194 0 34.466884-15.565689 34.466884-34.466883v-211.248643c0-18.901194-15.565689-34.466884-34.466884-34.466884-18.901194-1.111835-34.466884 14.453855-34.466884 33.355049v207.913138c0 18.901194 15.565689 38.914224 34.466884 38.914223zM265.086527 281.294245c18.901194 0 34.466884-15.565689 34.466884-34.466883v-211.248643C300.665246 15.565689 285.099556 0 265.086527 0c-18.901194 0-34.466884 15.565689-34.466884 34.466884v207.913138c0 18.901194 15.565689 38.914224 34.466884 38.914223zM404.065897 696.008686c50.032573-15.565689 76.716612-42.249729 76.716612-92.282302-3.335505-65.598263-46.697068-96.729642-123.41368-100.065146-73.381107 0-118.966341 34.466884-134.532031 100.065146l57.815418 11.11835c7.782845-46.697068 31.131379-68.933768 76.716613-68.933768 42.249729 0 65.598263 23.348534 65.598262 61.150923 0 42.249729-31.131379 65.598263-88.946797 65.598263h-31.131378v46.697068h34.466883c61.150923 0 92.282302 23.348534 92.282302 65.598263 0 46.697068-26.684039 73.381107-76.716612 73.381108-46.697068 0-73.381107-23.348534-81.163952-73.381108l-57.815418 18.901195c15.565689 68.933768 61.150923 100.065147 138.97937 100.065146 88.946797-3.335505 134.53203-38.914224 138.97937-111.183496-3.335505-50.032573-34.466884-84.499457-87.834962-96.729642zM677.577298 508.108578c-88.946797 3.335505-138.97937 68.933768-138.979371 200.130293s46.697068 195.682953 138.979371 195.682953 138.97937-65.598263 138.97937-195.682953c-4.44734-134.53203-51.144408-200.130293-138.97937-200.130293z m0 353.563518c-50.032573 0-76.716612-50.032573-76.716613-153.433225s26.684039-157.880565 76.716613-157.880565c53.368078-3.335505 76.716612 50.032573 76.716612 157.880565 0 103.400651-26.684039 157.880565-76.716612 153.433225z" fill="#682ac9" /></svg>