<?xml version="1.0" standalone="no"?><!DOCTYPE svg PUBLIC "-//W3C//DTD SVG 1.1//EN" "http://www.w3.org/Graphics/SVG/1.1/DTD/svg11.dtd"><svg class="icon" width="128px" height="128.00px" viewBox="0 0 1024 1024" version="1.1" xmlns="http://www.w3.org/2000/svg"><path d="M510.645264 935.490563 69.723761 733.363909c1.445052 0.903158-39.016405-17.340624-67.917446-33.778091 0 24.385253 6.141471 69.362498 29.081672 81.464809l431.528665 193.095078c38.113247 17.882519 54.550714 17.882519 95.915329 0l431.528665-193.095078c21.314518-9.934733 29.081672-56.357029 29.081672-81.464809-27.817252 13.727994-67.014288 33.59746-67.736814 33.778091L510.645264 935.490563 510.645264 935.490563zM510.645264 935.490563" fill="#682ac9" /><path d="M31.068619 376.616687l431.528665 193.095078c38.113247 17.882519 54.550714 17.882519 95.915329 0l431.528665-193.095078c31.791145-14.811783 32.874934-77.490916 0-95.373434L558.512612 54.550714c-33.958723-20.050097-57.802081-18.966308-95.915329 0L31.068619 281.243253C-1.806315 302.196507-2.890104 358.553537 31.068619 376.616687L31.068619 376.616687zM510.645264 93.025225c0.541895 0.180632 0.903158 0.361263 1.264421 0.722526l439.657082 235.182219L510.645264 513.715999l-440.740871-184.786029L510.645264 93.025225 510.645264 93.025225zM510.645264 93.025225" fill="#682ac9" /><path d="M511.729053 93.567119l-1.264421-0.722526C513.174105 95.915329 513.174105 94.650908 511.729053 93.567119L511.729053 93.567119zM511.729053 93.567119" fill="#682ac9" /><path d="M31.068619 578.743341l431.528665 193.095078c38.113247 17.882519 54.550714 17.882519 95.915329 0l431.528665-193.095078c21.314518-9.934733 29.081672-56.357029 29.081672-81.284177-27.817252 13.908626-67.014288 33.416828-67.736814 33.59746L510.645264 733.363909l-440.740871-202.307285c1.445052 0.903158-39.016405-17.340624-67.917446-33.59746C1.986947 521.844417 8.128418 566.64103 31.068619 578.743341L31.068619 578.743341zM31.068619 578.743341" fill="#682ac9" /></svg>