<?xml version="1.0" standalone="no"?><!DOCTYPE svg PUBLIC "-//W3C//DTD SVG 1.1//EN" "http://www.w3.org/Graphics/SVG/1.1/DTD/svg11.dtd"><svg class="icon" width="128px" height="114.98px" viewBox="0 0 1140 1024" version="1.1" xmlns="http://www.w3.org/2000/svg"><path d="M1029.795 1024H84.545c-43.5 0-78.75-35.25-78.75-78.75V157.5c0-43.5 35.25-78.75 78.75-78.75h157.5v78.75h-157.5v118.125h945.25V157.5h-157.5V78.75h157.5c43.5 0 78.75 35.25 78.75 78.75v787.75c0 43.5-35.25 78.75-78.75 78.75z m0-669.5H84.545v590.75h945.25V354.5z" fill="#682ac9" /><path d="M793.545 236.25c-21.75 0-39.375-17.625-39.375-39.375v-157.5C754.17 17.625 771.795 0 793.545 0s39.375 17.625 39.375 39.375v157.5c0 21.75-17.75 39.375-39.375 39.375zM399.67 78.75h315v78.75h-315V78.75z m-78.75 157.5c-21.75 0-39.375-17.625-39.375-39.375v-157.5C281.545 17.625 299.17 0 320.92 0s39.375 17.625 39.375 39.375v157.5c0 21.75-17.625 39.375-39.375 39.375z m93 226.625h241.75v69.375L539.92 835h-79.875L579.92 523.875h-166v-61z" fill="#682ac9" /></svg>